<svg width="80" height="80" viewBox="0 0 80 80" fill="none" xmlns="http://www.w3.org/2000/svg">
<mask id="mask0" mask-type="alpha" maskUnits="userSpaceOnUse" x="0" y="0" width="80" height="80">
<circle cx="40" cy="40" r="40" fill="#C4C4C4"/>
</mask>
<g mask="url(#mask0)">
<ellipse cx="40" cy="40" rx="46" ry="56" fill="#0364FF"/>
<circle cx="-0.5" cy="80.5" r="51.5" fill="#5495F7"/>
</g>
<path d="M30.4219 51H14.8281V47.9062L22.1875 40.0625C23.1979 38.9583 23.9427 37.9948 24.4219 37.1719C24.9115 36.349 25.1562 35.5677 25.1562 34.8281C25.1562 33.8177 24.901 33.026 24.3906 32.4531C23.8802 31.8698 23.151 31.5781 22.2031 31.5781C21.1823 31.5781 20.375 31.9323 19.7812 32.6406C19.1979 33.3385 18.9062 34.2604 18.9062 35.4062H14.375C14.375 34.0208 14.7031 32.7552 15.3594 31.6094C16.026 30.4635 16.9635 29.5677 18.1719 28.9219C19.3802 28.2656 20.75 27.9375 22.2812 27.9375C24.625 27.9375 26.4427 28.5 27.7344 29.625C29.0365 30.75 29.6875 32.3385 29.6875 34.3906C29.6875 35.5156 29.3958 36.6615 28.8125 37.8281C28.2292 38.9948 27.2292 40.3542 25.8125 41.9062L20.6406 47.3594H30.4219V51ZM47.375 41.7031H38.375V51H33.6875V28.25H48.5V32.0469H38.375V37.9219H47.375V41.7031ZM61.0625 46.3125H52.8438L51.2812 51H46.2969L54.7656 28.25H59.1094L67.625 51H62.6406L61.0625 46.3125ZM54.1094 42.5156H59.7969L56.9375 34L54.1094 42.5156Z" fill="white"/>
</svg>
