<svg width="80" height="80" viewBox="0 0 80 80" fill="none" xmlns="http://www.w3.org/2000/svg">
<mask id="mask0" mask-type="alpha" maskUnits="userSpaceOnUse" x="0" y="0" width="80" height="80">
<circle cx="40" cy="40" r="40" fill="#C4C4C4"/>
</mask>
<g mask="url(#mask0)">
<ellipse cx="40" cy="40" rx="46" ry="56" fill="#0364FF"/>
<circle cx="80.5" cy="40.5" r="51.5" fill="#5495F7"/>
</g>
<path d="M34.1562 45.0312C34.1562 44.1458 33.8438 43.4688 33.2188 43C32.5938 42.5208 31.4688 42.0208 29.8438 41.5C28.2188 40.9688 26.9323 40.4479 25.9844 39.9375C23.401 38.5417 22.1094 36.6615 22.1094 34.2969C22.1094 33.0677 22.4531 31.974 23.1406 31.0156C23.8385 30.0469 24.8333 29.2917 26.125 28.75C27.4271 28.2083 28.8854 27.9375 30.5 27.9375C32.125 27.9375 33.5729 28.2344 34.8438 28.8281C36.1146 29.4115 37.099 30.2396 37.7969 31.3125C38.5052 32.3854 38.8594 33.6042 38.8594 34.9688H34.1719C34.1719 33.9271 33.8438 33.1198 33.1875 32.5469C32.5312 31.9635 31.6094 31.6719 30.4219 31.6719C29.276 31.6719 28.3854 31.9167 27.75 32.4062C27.1146 32.8854 26.7969 33.5208 26.7969 34.3125C26.7969 35.0521 27.1667 35.6719 27.9062 36.1719C28.6562 36.6719 29.7552 37.1406 31.2031 37.5781C33.8698 38.3802 35.8125 39.375 37.0312 40.5625C38.25 41.75 38.8594 43.2292 38.8594 45C38.8594 46.9688 38.1146 48.5156 36.625 49.6406C35.1354 50.7552 33.1302 51.3125 30.6094 51.3125C28.8594 51.3125 27.2656 50.9948 25.8281 50.3594C24.3906 49.7135 23.2917 48.8333 22.5312 47.7188C21.7812 46.6042 21.4062 45.3125 21.4062 43.8438H26.1094C26.1094 46.3542 27.6094 47.6094 30.6094 47.6094C31.724 47.6094 32.5938 47.3854 33.2188 46.9375C33.8438 46.4792 34.1562 45.8438 34.1562 45.0312ZM46.7344 42.9844V51H42.0469V28.25H50.9219C52.6302 28.25 54.1302 28.5625 55.4219 29.1875C56.724 29.8125 57.724 30.7031 58.4219 31.8594C59.1198 33.0052 59.4688 34.3125 59.4688 35.7812C59.4688 38.0104 58.7031 39.7708 57.1719 41.0625C55.651 42.3438 53.5417 42.9844 50.8438 42.9844H46.7344ZM46.7344 39.1875H50.9219C52.1615 39.1875 53.1042 38.8958 53.75 38.3125C54.4062 37.7292 54.7344 36.8958 54.7344 35.8125C54.7344 34.6979 54.4062 33.7969 53.75 33.1094C53.0938 32.4219 52.1875 32.0677 51.0312 32.0469H46.7344V39.1875Z" fill="white"/>
</svg>
