<svg width="80" height="80" viewBox="0 0 80 80" fill="none" xmlns="http://www.w3.org/2000/svg">
<mask id="mask0" mask-type="alpha" maskUnits="userSpaceOnUse" x="0" y="0" width="80" height="80">
<circle cx="40" cy="40" r="40" fill="#C4C4C4"/>
</mask>
<g mask="url(#mask0)">
<ellipse cx="40" cy="40" rx="46" ry="56" fill="#0364FF"/>
<circle cx="28.5" cy="65.5" r="51.5" fill="#5495F7"/>
</g>
<path d="M26.7344 42.9844V51H22.0469V28.25H30.9219C32.6302 28.25 34.1302 28.5625 35.4219 29.1875C36.724 29.8125 37.724 30.7031 38.4219 31.8594C39.1198 33.0052 39.4688 34.3125 39.4688 35.7812C39.4688 38.0104 38.7031 39.7708 37.1719 41.0625C35.651 42.3438 33.5417 42.9844 30.8438 42.9844H26.7344ZM26.7344 39.1875H30.9219C32.1615 39.1875 33.1042 38.8958 33.75 38.3125C34.4062 37.7292 34.7344 36.8958 34.7344 35.8125C34.7344 34.6979 34.4062 33.7969 33.75 33.1094C33.0938 32.4219 32.1875 32.0677 31.0312 32.0469H26.7344V39.1875ZM49.8281 41.875L47.3906 44.5V51H42.7031V28.25H47.3906V38.5625L49.4531 35.7344L55.25 28.25H61.0156L52.9375 38.3594L61.25 51H55.6719L49.8281 41.875Z" fill="white"/>
</svg>
