<svg width="80" height="80" viewBox="0 0 80 80" fill="none" xmlns="http://www.w3.org/2000/svg">
<mask id="mask0" mask-type="alpha" maskUnits="userSpaceOnUse" x="0" y="0" width="80" height="80">
<circle cx="40" cy="40" r="40" fill="#C4C4C4"/>
</mask>
<g mask="url(#mask0)">
<ellipse cx="40" cy="40" rx="46" ry="56" fill="#0364FF"/>
<circle cx="-0.5" cy="80.5" r="51.5" fill="#5495F7"/>
</g>
<path d="M21.4023 32.2031V35.3203H23.5703V37.8047H21.4023V44.1328C21.4023 44.6016 21.4922 44.9375 21.6719 45.1406C21.8516 45.3438 22.1953 45.4453 22.7031 45.4453C23.0781 45.4453 23.4102 45.418 23.6992 45.3633V47.9297C23.0352 48.1328 22.3516 48.2344 21.6484 48.2344C19.2734 48.2344 18.0625 47.0352 18.0156 44.6367V37.8047H16.1641V35.3203H18.0156V32.2031H21.4023ZM31.0234 41.1562L29.1953 43.125V48H25.6797V30.9375H29.1953V38.6719L30.7422 36.5508L35.0898 30.9375H39.4141L33.3555 38.5195L39.5898 48H35.4062L31.0234 41.1562ZM46.2227 48.2344C44.3633 48.2344 42.8477 47.6641 41.6758 46.5234C40.5117 45.3828 39.9297 43.8633 39.9297 41.9648V41.6367C39.9297 40.3633 40.1758 39.2266 40.668 38.2266C41.1602 37.2188 41.8555 36.4453 42.7539 35.9062C43.6602 35.3594 44.6914 35.0859 45.8477 35.0859C47.582 35.0859 48.9453 35.6328 49.9375 36.7266C50.9375 37.8203 51.4375 39.3711 51.4375 41.3789V42.7617H43.3633C43.4727 43.5898 43.8008 44.2539 44.3477 44.7539C44.9023 45.2539 45.6016 45.5039 46.4453 45.5039C47.75 45.5039 48.7695 45.0312 49.5039 44.0859L51.168 45.9492C50.6602 46.668 49.9727 47.2305 49.1055 47.6367C48.2383 48.0352 47.2773 48.2344 46.2227 48.2344ZM45.8359 37.8281C45.1641 37.8281 44.6172 38.0547 44.1953 38.5078C43.7812 38.9609 43.5156 39.6094 43.3984 40.4531H48.1094V40.1836C48.0938 39.4336 47.8906 38.8555 47.5 38.4492C47.1094 38.0352 46.5547 37.8281 45.8359 37.8281ZM57.9414 43.207L60.2852 35.3203H63.918L58.8203 49.9688L58.5391 50.6367C57.7812 52.293 56.5312 53.1211 54.7891 53.1211C54.2969 53.1211 53.7969 53.0469 53.2891 52.8984V50.332L53.8047 50.3438C54.4453 50.3438 54.9219 50.2461 55.2344 50.0508C55.5547 49.8555 55.8047 49.5312 55.9844 49.0781L56.3828 48.0352L51.9414 35.3203H55.5859L57.9414 43.207Z" fill="white"/>
</svg>
