<svg width="24" height="24" viewBox="0 0 24 24" fill="none" xmlns="http://www.w3.org/2000/svg">
<g id="24 / basic / etherscan-link">
<path id="Vector" d="M19.4839 13.3403H18.4849C18.2185 13.3403 17.9854 13.5734 17.9854 13.8398V17.5026C17.9854 17.769 17.7523 18.0021 17.486 18.0021H6.4974C6.23101 18.0021 5.99792 17.769 5.99792 17.5026V10.5099C5.99792 10.2435 6.23101 10.0104 6.4974 10.0104H7.82934C8.09573 10.0104 8.32882 9.77732 8.32882 9.51093V8.51197C8.32882 8.24558 8.09573 8.01249 7.82934 8.01249H5.33195C4.59938 8.01249 4 8.61186 4 9.34443V18.6681C4 19.4006 4.59938 20 5.33195 20H18.6514C19.384 20 19.9833 19.4006 19.9833 18.6681V13.8398C19.9833 13.5734 19.7503 13.3403 19.4839 13.3403V13.3403ZM14.6556 8.01249C11.3257 8.01249 8.29553 10.9761 8.02914 14.4724C7.99584 14.7388 8.22893 15.0052 8.52862 15.0052H9.52758C9.79396 15.0052 9.99376 14.8054 10.0271 14.5723C10.2601 12.0749 12.3913 10.0104 14.9886 10.0104H15.5213C15.821 10.0104 15.9542 10.3767 15.7544 10.5765L13.923 12.4412C13.7232 12.641 13.7232 12.9407 13.923 13.1405L14.6223 13.8398C14.8221 14.0395 15.1217 14.0395 15.3215 13.8398L19.8502 9.34443C20.0499 9.14464 20.0499 8.84495 19.8502 8.64516L15.3548 4.14984C15.155 3.95005 14.8554 3.95005 14.6556 4.14984L13.9563 4.84912C13.7565 5.04891 13.7232 5.3486 13.923 5.54839L15.7877 7.41311C15.9875 7.6129 15.8543 7.97919 15.5546 7.97919L14.6556 8.01249Z" fill="#7F8FA4"/>
</g>
</svg>
