<svg width="267" height="159" viewBox="0 0 267 159" fill="none" xmlns="http://www.w3.org/2000/svg">
<path fill-rule="evenodd" clip-rule="evenodd" d="M123.743 0.042054C141.351 -0.831425 156.044 12.0735 170.041 22.7732C183.687 33.2042 198.824 44.0319 203.047 60.6628C207.176 76.9246 196.853 92.4588 191.8 108.458C186.689 124.64 187.544 145.203 173.382 154.586C159.247 163.95 140.549 155.86 123.743 153.548C109.468 151.584 95.5034 149.561 83.1407 142.17C69.7807 134.184 59.7778 122.785 50.9086 110.008C38.4267 92.0266 13.9666 73.771 21.3681 53.1798C28.8415 32.3885 61.0387 37.3969 80.6716 27.2065C96.117 19.1896 106.356 0.904573 123.743 0.042054Z" fill="#F1F2F6"/>
<g filter="url(#filter0_d)">
<rect x="12" y="43" width="82.9041" height="70.7123" rx="6" fill="url(#paint0_linear)"/>
</g>
<g filter="url(#filter1_d)">
<path d="M69.3011 76.3838C69.3011 71.4132 73.3306 67.3838 78.3011 67.3838H97.9998C99.6566 67.3838 101 68.7269 101 70.3838V86.329C101 87.9858 99.6566 89.329 97.9998 89.329H78.3012C73.3306 89.329 69.3011 85.2996 69.3011 80.329V78.3564V76.3838Z" fill="url(#paint1_linear)"/>
</g>
<circle cx="79.6647" cy="77.7466" r="4.26712" fill="#0364FF"/>
<g filter="url(#filter2_d)">
<g filter="url(#filter3_d)">
<rect x="154" y="38" width="99" height="80.5121" rx="9" fill="url(#paint2_linear)"/>
</g>
<circle cx="166.523" cy="47.5428" r="2.38554" fill="#0364FF"/>
<circle cx="185.608" cy="47.5428" r="2.38554" fill="#0364FF"/>
<circle cx="176.066" cy="47.5428" r="2.38554" fill="#0364FF"/>
<rect x="183" y="74" width="41.1506" height="4.77108" rx="2.38554" fill="#0364FF"/>
<rect x="194" y="87.5234" width="19.6807" height="4.77108" rx="2.38554" fill="#0364FF"/>
</g>
<path d="M139.603 72.4365L138.112 61.9959C137.989 61.1399 136.937 60.7842 136.322 61.3996L134.15 63.5718C131.357 61.8868 128.185 61 124.925 61C115.118 61 107.245 68.6752 107 78.4731C106.987 79.0087 107.376 79.468 107.906 79.5442L112.12 80.1467C112.748 80.2384 113.333 79.7451 113.324 79.088C113.237 72.6214 118.46 67.328 124.925 67.328C126.49 67.328 128.037 67.6462 129.467 68.2549L127.373 70.3488C126.761 70.9603 127.108 72.0156 127.969 72.1388L138.41 73.6302C139.098 73.7339 139.702 73.1356 139.603 72.4365Z" fill="#0364FF"/>
<path d="M142.096 78.536L137.884 77.9345C137.34 77.8656 136.68 78.3318 136.68 79.0695C136.68 85.4665 131.476 90.6708 125.079 90.6708C123.522 90.6708 121.982 90.3557 120.557 89.7531L122.584 87.7262C123.196 87.1147 122.849 86.0594 121.988 85.9362L111.547 84.4437C110.862 84.3458 110.254 84.9339 110.354 85.6375L111.845 96.0781C111.968 96.935 113.019 97.2883 113.635 96.6744L115.86 94.4508C118.64 96.1203 121.809 96.9988 125.079 96.9988C134.838 96.9988 142.709 89.3618 143.001 79.6123C143.016 79.0757 142.627 78.6122 142.096 78.536Z" fill="#0364FF"/>
<defs>
<filter id="filter0_d" x="0" y="35" width="106.904" height="94.7123" filterUnits="userSpaceOnUse" color-interpolation-filters="sRGB">
<feFlood flood-opacity="0" result="BackgroundImageFix"/>
<feColorMatrix in="SourceAlpha" type="matrix" values="0 0 0 0 0 0 0 0 0 0 0 0 0 0 0 0 0 0 127 0"/>
<feOffset dy="4"/>
<feGaussianBlur stdDeviation="6"/>
<feColorMatrix type="matrix" values="0 0 0 0 0 0 0 0 0 0 0 0 0 0 0 0 0 0 0.16 0"/>
<feBlend mode="normal" in2="BackgroundImageFix" result="effect1_dropShadow"/>
<feBlend mode="normal" in="SourceGraphic" in2="effect1_dropShadow" result="shape"/>
</filter>
<filter id="filter1_d" x="57.3011" y="59.3838" width="55.6986" height="45.9452" filterUnits="userSpaceOnUse" color-interpolation-filters="sRGB">
<feFlood flood-opacity="0" result="BackgroundImageFix"/>
<feColorMatrix in="SourceAlpha" type="matrix" values="0 0 0 0 0 0 0 0 0 0 0 0 0 0 0 0 0 0 127 0"/>
<feOffset dy="4"/>
<feGaussianBlur stdDeviation="6"/>
<feColorMatrix type="matrix" values="0 0 0 0 0 0 0 0 0 0 0 0 0 0 0 0 0 0 0.16 0"/>
<feBlend mode="normal" in2="BackgroundImageFix" result="effect1_dropShadow"/>
<feBlend mode="normal" in="SourceGraphic" in2="effect1_dropShadow" result="shape"/>
</filter>
<filter id="filter2_d" x="140" y="38" width="127" height="108.512" filterUnits="userSpaceOnUse" color-interpolation-filters="sRGB">
<feFlood flood-opacity="0" result="BackgroundImageFix"/>
<feColorMatrix in="SourceAlpha" type="matrix" values="0 0 0 0 0 0 0 0 0 0 0 0 0 0 0 0 0 0 127 0"/>
<feOffset dy="14"/>
<feGaussianBlur stdDeviation="7"/>
<feColorMatrix type="matrix" values="0 0 0 0 0 0 0 0 0 0 0 0 0 0 0 0 0 0 0.12 0"/>
<feBlend mode="normal" in2="BackgroundImageFix" result="effect1_dropShadow"/>
<feBlend mode="normal" in="SourceGraphic" in2="effect1_dropShadow" result="shape"/>
</filter>
<filter id="filter3_d" x="142" y="30" width="123" height="104.512" filterUnits="userSpaceOnUse" color-interpolation-filters="sRGB">
<feFlood flood-opacity="0" result="BackgroundImageFix"/>
<feColorMatrix in="SourceAlpha" type="matrix" values="0 0 0 0 0 0 0 0 0 0 0 0 0 0 0 0 0 0 127 0"/>
<feOffset dy="4"/>
<feGaussianBlur stdDeviation="6"/>
<feColorMatrix type="matrix" values="0 0 0 0 0 0 0 0 0 0 0 0 0 0 0 0 0 0 0.16 0"/>
<feBlend mode="normal" in2="BackgroundImageFix" result="effect1_dropShadow"/>
<feBlend mode="normal" in="SourceGraphic" in2="effect1_dropShadow" result="shape"/>
</filter>
<linearGradient id="paint0_linear" x1="53.4521" y1="43" x2="53.4521" y2="113.712" gradientUnits="userSpaceOnUse">
<stop stop-color="#EFF7FE"/>
<stop offset="0.0727484" stop-color="#E2F1FD"/>
<stop offset="0.946608" stop-color="#C9E4FC"/>
<stop offset="1" stop-color="#B2D3F2"/>
</linearGradient>
<linearGradient id="paint1_linear" x1="85.1505" y1="67.3838" x2="85.1505" y2="89.329" gradientUnits="userSpaceOnUse">
<stop stop-color="#EFF7FE"/>
<stop offset="0.0727484" stop-color="#E2F1FD"/>
<stop offset="0.946608" stop-color="#C9E4FC"/>
<stop offset="1" stop-color="#B2D3F2"/>
</linearGradient>
<linearGradient id="paint2_linear" x1="203.5" y1="38" x2="203.5" y2="118.512" gradientUnits="userSpaceOnUse">
<stop stop-color="#EFF7FE"/>
<stop offset="0.0727484" stop-color="#E2F1FD"/>
<stop offset="0.946608" stop-color="#C9E4FC"/>
<stop offset="1" stop-color="#B2D3F2"/>
</linearGradient>
</defs>
</svg>
