<svg width="153" height="134" viewBox="0 0 153 134" fill="none" xmlns="http://www.w3.org/2000/svg">
<path fill-rule="evenodd" clip-rule="evenodd" d="M150.889 66.5582C151.919 82.3285 155.253 100.079 145.526 112.495C135.864 124.829 117.805 124.719 102.581 128.222C88.9189 131.367 75.2377 135.493 61.7166 131.784C47.8015 127.966 37.0182 118.031 27.0908 107.513C15.7561 95.503 -2.66553 83.2585 0.606657 67.0345C4.03967 50.0131 29.2617 49.3339 41.3313 36.9064C50.5916 27.3715 50.23 10.0997 61.9498 3.8724C74.1807 -2.62651 89.0636 0.868324 102.435 4.43917C116.445 8.18081 130.844 13.1924 139.788 24.6598C148.883 36.3189 149.923 51.7746 150.889 66.5582Z" fill="#F1F2F6"/>
<g filter="url(#filter0_d)">
<g filter="url(#filter1_d)">
<rect x="57.9993" y="24" width="59" height="81" rx="9" fill="url(#paint0_linear)"/>
</g>
<rect x="77.9993" y="79" width="19.6807" height="4.77108" rx="2.38554" fill="#0364FF"/>
</g>
<rect x="66.9993" y="70" width="41.1506" height="4.77108" rx="2.38554" fill="#0364FF"/>
<circle cx="87.9993" cy="50" r="12" fill="#0364FF"/>
<defs>
<filter id="filter0_d" x="43.9993" y="24" width="87" height="109" filterUnits="userSpaceOnUse" color-interpolation-filters="sRGB">
<feFlood flood-opacity="0" result="BackgroundImageFix"/>
<feColorMatrix in="SourceAlpha" type="matrix" values="0 0 0 0 0 0 0 0 0 0 0 0 0 0 0 0 0 0 127 0"/>
<feOffset dy="14"/>
<feGaussianBlur stdDeviation="7"/>
<feColorMatrix type="matrix" values="0 0 0 0 0 0 0 0 0 0 0 0 0 0 0 0 0 0 0.12 0"/>
<feBlend mode="normal" in2="BackgroundImageFix" result="effect1_dropShadow"/>
<feBlend mode="normal" in="SourceGraphic" in2="effect1_dropShadow" result="shape"/>
</filter>
<filter id="filter1_d" x="45.9993" y="16" width="83" height="105" filterUnits="userSpaceOnUse" color-interpolation-filters="sRGB">
<feFlood flood-opacity="0" result="BackgroundImageFix"/>
<feColorMatrix in="SourceAlpha" type="matrix" values="0 0 0 0 0 0 0 0 0 0 0 0 0 0 0 0 0 0 127 0"/>
<feOffset dy="4"/>
<feGaussianBlur stdDeviation="6"/>
<feColorMatrix type="matrix" values="0 0 0 0 0 0 0 0 0 0 0 0 0 0 0 0 0 0 0.16 0"/>
<feBlend mode="normal" in2="BackgroundImageFix" result="effect1_dropShadow"/>
<feBlend mode="normal" in="SourceGraphic" in2="effect1_dropShadow" result="shape"/>
</filter>
<linearGradient id="paint0_linear" x1="87.4993" y1="24" x2="87.4993" y2="105" gradientUnits="userSpaceOnUse">
<stop stop-color="#EFF7FE"/>
<stop offset="0.0727484" stop-color="#E2F1FD"/>
<stop offset="0.946608" stop-color="#C9E4FC"/>
<stop offset="1" stop-color="#B2D3F2"/>
</linearGradient>
</defs>
</svg>
